
<svg width="1280px" height="640px" viewBox="0 0 1280 640" version="1.1" xmlns="http://www.w3.org/2000/svg" xmlns:xlink="http://www.w3.org/1999/xlink">
    <defs>
        <path d="M0,0 L1280,0 L1280,640 L0,640 L0,0 Z" id="path-1-xbdmgtbn-1"></path>
    </defs>
    <g id="Banner-with-biline" stroke="none" stroke-width="1" fill="none" fill-rule="evenodd">
        <g id="Frame" xlink:href="#path-1-xbdmgtbn-1">
            <rect id="Rectangle" fill="#000000" fill-rule="evenodd" x="0" y="0" width="1280" height="640"></rect>
            <g id="Group" stroke-width="1" fill-rule="evenodd" transform="translate(143, 194.2771)">
                <path d="M191.820521,106.722892 C143.462809,106.722892 99.5274702,112.56224 67,122.078626 L67,203.367526 C99.5274702,212.883912 143.462809,218.722892 191.820521,218.722892 C247.167035,218.722892 296.716854,211.07399 330,199.017811 L330,126.429817 C296.716854,114.372531 247.167035,106.722892 191.820521,106.722892 Z" id="Path" fill="#8F1E1C" fill-rule="nonzero"></path>
                <path d="M331.534451,180.663298 C330.117032,176.756172 329.833328,171.812812 331.034294,167.046433 C333.184126,158.512899 339.273846,153.782795 344.636298,156.481471 C345.965886,157.150919 347.125692,158.215 348.085951,159.565987 C348.173781,159.565621 348.261612,159.565987 348.348708,159.57185 C348.348708,159.57185 364.721238,179.030901 349.566211,202.077562 C349.237305,203.385312 321.440532,235.684787 315.006104,236.712959 C310.794639,237.385705 320.478436,203.735975 331.534451,180.663298 Z" id="Path" fill="#8F1E1C" fill-rule="nonzero"></path>
                <path d="M65.0537416,177.058477 C67.0041592,173.513402 67.6879094,168.669571 66.6056116,163.649407 C64.6677061,154.661189 57.806652,148.515657 51.2812169,149.923747 C49.6627383,150.272733 48.2175892,151.054637 46.98809,152.168593 C46.8843131,152.147241 46.7805362,152.126994 46.6771272,152.112269 C46.6771272,152.112269 25.9614837,167.555984 42.2401111,194.050907 C42.5363538,195.428074 73.0975584,234.117244 80.6269065,236.666531 C85.5548391,238.334889 76.4879731,202.60547 65.0537416,177.058477 Z" id="Path" fill="#8F1E1C" fill-rule="nonzero"></path>
                <path d="M35.9893088,178.714202 L35.9900088,178.715702 C36.0085088,178.730202 36.0257088,178.743302 35.9893088,178.714202 Z" id="Path" fill="#E33A25" fill-rule="nonzero"></path>
                <path d="M363.66822,151.058082 C363.345778,149.934225 363.024801,148.811102 362.692831,147.697515 L373.935456,131.393153 C375.082326,129.73451 375.316829,127.579228 374.569349,125.687671 C373.821868,123.806018 372.191334,122.456216 370.260342,122.126101 L351.24868,118.89648 C350.512925,117.39189 349.740528,115.910042 348.965932,114.439932 L356.952618,96.1358083 C357.774481,94.2699269 357.600801,92.1029077 356.511825,90.4108867 C355.426878,88.7104295 353.584191,87.7171512 351.620589,87.7945448 L332.32679,88.4962218 C331.327584,87.1941029 330.312989,85.9037214 329.277508,84.6371816 L333.711461,65.0173678 C334.160316,63.0245757 333.593477,60.9393515 332.208072,59.4919822 C330.82963,58.049748 328.826455,57.4529741 326.922211,57.9210033 L308.129297,62.5455427 C306.912442,61.4690021 305.674702,60.406033 304.423405,59.3643379 L305.100534,39.2222093 C305.173084,37.1832012 304.22371,35.245795 302.59281,34.1146022 C300.963741,32.9760734 298.894612,32.804047 297.112749,33.6502409 L279.581027,41.9937052 C278.168874,41.1830903 276.749393,40.3798114 275.314523,39.6033084 L272.216509,19.7542483 C271.902493,17.7434833 270.609791,16.0356902 268.799349,15.2555192 C266.995502,14.4713136 264.927105,14.7244015 263.343105,15.9186829 L247.712329,27.6586601 C246.173398,27.1466156 244.627505,26.6562119 243.061826,26.1874491 L236.324972,7.36467883 C235.639781,5.44671273 234.060178,4.03748999 232.13395,3.64135241 C230.214316,3.24851599 228.238988,3.91388039 226.907813,5.40269745 L213.751052,20.1375481 C212.16009,19.954151 210.568762,19.786893 208.971938,19.6489784 L198.813893,2.51492788 C197.784275,0.779258433 195.966871,-0.277108434 194.008032,-0.277108434 C192.053589,-0.277108434 190.232521,0.779258433 189.211696,2.51492788 L179.049988,19.6489784 C177.453164,19.786893 175.854141,19.954151 174.266111,20.1375481 L161.10825,5.40269745 C159.775975,3.91388039 157.793319,3.24851599 155.880281,3.64135241 C153.954785,4.04189152 152.372618,5.44671273 151.691091,7.36467883 L144.948375,26.1874491 C143.387459,26.6562119 141.840833,27.1510171 140.298238,27.6586601 L124.672958,15.9186829 C123.084195,14.7207335 121.016164,14.4680124 119.207554,15.2555192 C117.405172,16.0356902 116.107341,17.7434833 115.795157,19.7542483 L112.694944,39.6033084 C111.260807,40.3798114 109.84096,41.178322 108.425143,41.9937052 L90.8952527,33.6502409 C89.1152224,32.8011127 87.0372991,32.9760734 85.4159253,34.1146022 C83.7872232,35.245795 82.8356508,37.1832012 82.9096661,39.2222093 L83.5820324,59.3643379 C82.334399,60.406033 81.0999564,61.4690021 79.8768726,62.5455427 L61.0876235,57.9210033 C59.1782497,57.4570088 57.1780057,58.049748 55.7962655,59.4919822 C54.4057313,60.9393515 53.8425558,63.0245757 54.2892123,65.0173678 L58.7151048,84.6371816 C57.6884179,85.9088565 56.672357,87.1941029 55.6764487,88.4962218 L36.3830164,87.7945448 C34.4355358,87.7369581 32.5770933,88.7104295 31.4892156,90.4108867 C30.3991394,92.1029077 30.234254,94.2699269 31.0454905,96.1358083 L39.0384053,114.439932 C38.261978,115.910042 37.4906804,117.39189 36.7486958,118.89648 L17.7381337,122.126101 C15.8067752,122.451814 14.1788059,123.800883 13.427661,125.687671 C12.6812794,127.579228 12.9234779,129.73451 14.0633861,131.393153 L25.3085753,147.697515 C25.2217356,147.985082 25.1418578,148.275583 25.0557509,148.564616 L18.8769426,155.134631 L35.4904364,178.627424 C35.4904364,178.627424 194.935421,252.254727 342.835857,179.873056 C359.730389,176.838569 363.66822,151.058082 363.66822,151.058082 Z" id="Path" fill="#E43A25" fill-rule="nonzero"></path>
                <path d="M222.69779,138.271749 C222.69779,138.271749 240.278818,119.03682 257.860211,138.271749 C257.860211,138.271749 271.674736,163.920751 257.860211,176.743429 C257.860211,176.743429 235.255719,194.69722 222.69779,176.743429 C222.69779,176.743429 207.627763,162.636331 222.69779,138.271749 Z" id="Path" fill="#030404" fill-rule="nonzero"></path>
                <path d="M243,145.223073 C243,152.678674 238.522134,158.722892 232.999445,158.722892 C227.477866,158.722892 223,152.678674 223,145.223073 C223,137.767836 227.477866,131.722892 232.999445,131.722892 C238.522134,131.722892 243,137.767836 243,145.223073 Z" id="Path" fill="#FFFFFF" fill-rule="nonzero"></path>
                <path d="M143.194063,133.698112 C143.194063,133.698112 173.671197,120.376631 181.989248,150.110309 C181.989248,150.110309 190.702798,184.7667 156.961679,186.722892 C156.961679,186.722892 113.935527,178.541923 143.194063,133.698112 Z" id="Path" fill="#030404" fill-rule="nonzero"></path>
                <path d="M159,145.722892 C159,153.453085 154.52295,159.722892 148.999462,159.722892 C143.478126,159.722892 139,153.453085 139,145.722892 C139,137.990873 143.478126,131.722892 148.999462,131.722892 C154.52295,131.722892 159,137.990873 159,145.722892 Z" id="Path" fill="#FFFFFF" fill-rule="nonzero"></path>
                <path d="M40.8361118,182.862378 C44.8490176,178.290649 54.5982528,172.753805 53.8514359,165.885022 C52.5147764,153.586509 42.3414546,144.609588 31.128956,145.83478 C28.3480602,146.138511 25.7654862,147.042365 23.4727109,148.415755 C23.3036617,148.376505 23.1342466,148.338355 22.9648315,148.307909 C22.9648315,148.307909 -14.9545121,166.969355 6.65853677,204.306185 C6.86234716,206.190561 49.779985,261.408969 61.8329727,265.613875 C69.7215691,268.36579 54.5473917,218.425614 40.8361118,182.862378 Z" id="Path" fill="#E43A25" fill-rule="nonzero"></path>
                <path d="M349.167408,181.263799 C344.528648,177.346427 332.297129,173.788575 332.020112,166.898395 C331.524551,154.561238 340.247306,144.19192 351.503416,143.73831 C354.294785,143.625548 356.979441,144.134807 359.446649,145.150394 C359.608181,145.086691 359.769714,145.023721 359.932343,144.968438 C359.932343,144.968438 400.141874,157.76433 384.306573,197.822198 C384.383319,199.712421 350.147932,260.579218 338.863681,266.517148 C331.478138,270.4034 340.875894,218.399014 349.167408,181.263799 Z" id="Path" fill="#E43A25" fill-rule="nonzero"></path>
                <path d="M70,181.722892 C70,181.722892 69.4940851,232.412171 118.733406,243.722892 L129,222.913838 C129,222.913838 93.320897,226.395735 90.5762099,181.722892 L70,181.722892 Z" id="Path" fill="#E43A25" fill-rule="nonzero"></path>
                <path d="M321,181.722892 C321,181.722892 321.505546,232.412171 272.26653,243.722892 L262,222.913838 C262,222.913838 297.678882,226.395735 300.423552,181.722892 L321,181.722892 Z" id="Path" fill="#E43A25" fill-rule="nonzero"></path>
                <path d="M284.807457,232.637449 C277.429888,214.684887 253.62311,207.557344 231.633947,216.717765 C212.278849,224.780682 200.798623,242.773226 203.35363,259.211217 C218.635581,258.972055 235.027993,257.974691 250.983944,255.646529 C250.983944,255.646529 241.570895,270.96574 227.719281,284.33534 C237.033599,286.755939 247.896659,286.084305 258.350219,281.729501 C280.339747,272.56908 292.185026,250.589645 284.807457,232.637449 Z" id="Path" fill="#E43A25" fill-rule="nonzero"></path>
                <path d="M148.005382,255.201144 C148.005382,255.201144 168.161022,257.874513 195.715423,258.556506 C198.128857,241.145344 184.98824,222.71907 164.022768,215.590942 C140.860378,207.716322 116.926492,216.614115 110.564301,235.465122 C104.20211,254.316129 117.821397,275.981594 140.983788,283.856581 C151.251286,287.347535 161.668849,287.539197 170.642002,285.031837 C157.165111,271.653998 148.005382,255.201144 148.005382,255.201144 Z" id="Path" fill="#E43A25" fill-rule="nonzero"></path>
            </g>
            <text id="Rvoip" font-family="Helvetica-Bold, Helvetica" font-size="150" font-weight="bold" line-spacing="94" fill="#FFFFFF">
                <tspan x="432" y="177">Rvoip</tspan>
            </text>
            <g id="Group" stroke-width="1" fill-rule="evenodd" transform="translate(833.0649, 192)">
                <path d="M60.8176899,13.7895588 C71.5147568,10.8473941 82.7005222,16.3503317 86.9359091,26.5934236 L108.927341,79.6068724 C112.67403,88.59682 110.067638,99.0033654 102.519961,105.214602 L78.573735,124.883518 C96.2211804,163.894442 126.900586,195.713408 165.073368,214.72851 L186.033103,189.011811 C192.168984,181.438461 202.540252,178.877688 211.554024,182.582636 L264.38776,204.703356 C274.596129,208.953149 280.080412,220.176963 277.148221,230.910415 L276.333724,233.907064 C266.776953,269.158556 232.839558,299.234017 191.408786,290.462008 C96.3840799,270.248247 21.6132111,195.223047 1.46797341,99.8751179 C-7.27429956,58.3034207 22.6992078,24.2505888 57.7768993,14.6068267 L60.7633901,13.7895588 L60.8176899,13.7895588 Z" id="Path" fill="#1216E4"></path>
                <path d="M176.966353,-4.54747351e-13 C246.52065,-4.54747351e-13 302.935103,56.4144531 302.935103,125.96875 C302.935103,133.190234 297.125338,139 289.903853,139 C282.682369,139 276.872603,133.190234 276.872603,125.96875 C276.872603,70.803125 232.131978,26.0625 176.966353,26.0625 C169.744869,26.0625 163.935103,20.2527344 163.935103,13.03125 C163.935103,5.80976562 169.744869,-4.54747351e-13 176.966353,-4.54747351e-13 Z M181.310103,104.25 C190.92065,104.25 198.685103,112.014453 198.685103,121.625 C198.685103,131.235547 190.92065,139 181.310103,139 C171.699556,139 163.935103,131.235547 163.935103,121.625 C163.935103,112.014453 171.699556,104.25 181.310103,104.25 Z M163.935103,65.15625 C163.935103,57.9347656 169.744869,52.125 176.966353,52.125 C217.743306,52.125 250.810103,85.1917969 250.810103,125.96875 C250.810103,133.190234 245.000338,139 237.778853,139 C230.557369,139 224.747603,133.190234 224.747603,125.96875 C224.747603,99.5804687 203.354634,78.1875 176.966353,78.1875 C169.744869,78.1875 163.935103,72.3777344 163.935103,65.15625 Z" id="Shape" fill="#D8D6E3" fill-rule="nonzero"></path>
            </g>
            <g id="Group" stroke-width="1" fill-rule="evenodd" transform="translate(664, 310)" stroke="#FFFFFF" stroke-linecap="square">
                <line x1="27.5" y1="0.259433962" x2="27.5" y2="54.740566" id="Line" stroke-width="25" fill="#FFFFFF"></line>
                <line x1="0" y1="27" x2="54.740566" y2="27.5" id="Line" stroke-width="25"></line>
            </g>
            <text id="The-modern-VoIP-stac" font-family="CourierNewPSMT, Courier New" font-size="60" font-weight="normal" fill="#FFFFFF">
                <tspan x="261" y="583">The modern VoIP stack</tspan>
            </text>
        </g>
    </g>
</svg>