
<svg width="400px" height="400px" viewBox="0 0 400 400" version="1.1" xmlns="http://www.w3.org/2000/svg" xmlns:xlink="http://www.w3.org/1999/xlink">
    <defs>
        <path d="M0,0 L400,0 L400,400 L0,400 L0,0 Z" id="path-1ryrt3hju_-1"></path>
    </defs>
    <g id="Square-with-biline" stroke="none" stroke-width="1" fill="none" fill-rule="evenodd">
        <g id="Frame" xlink:href="#path-1ryrt3hju_-1">
            <rect id="Rectangle" fill="#000000" fill-rule="evenodd" x="0" y="0" width="400" height="400"></rect>
            <g id="Group" stroke-width="1" fill-rule="evenodd" transform="translate(33, 165)">
                <path d="M68.6634521,36.1188119 C51.7474466,36.1188119 36.3784306,38.1010519 25,41.3315081 L25,68.9260429 C36.3784306,72.1564991 51.7474466,74.1386139 68.6634521,74.1386139 C88.0242099,74.1386139 105.357227,71.5420986 117,67.4494776 L117,42.8085745 C105.357227,38.7155776 88.0242099,36.1188119 68.6634521,36.1188119 Z" id="Path" fill="#8F1E1C" fill-rule="nonzero"></path>
                <path d="M117.262304,60.7644656 C116.756083,59.4348677 116.65476,57.7526389 117.083676,56.1306367 C117.851473,53.2266691 120.026373,51.6170115 121.941535,52.535373 C122.416388,52.7631865 122.830604,53.125294 123.173554,53.5850358 C123.204922,53.5849112 123.23629,53.5850358 123.267396,53.5870309 C123.267396,53.5870309 129.114728,60.2089597 123.702218,68.0517544 C123.584752,68.4967826 113.657333,79.4883165 111.359323,79.8382042 C109.855228,80.0671399 113.313727,68.6161135 117.262304,60.7644656 Z" id="Path" fill="#8F1E1C" fill-rule="nonzero"></path>
                <path d="M23.1056492,59.3356647 C23.7840554,58.173742 24.0218815,56.5861429 23.6454301,54.9407494 C22.971376,51.9947987 20.5849224,49.9805581 18.3152059,50.4420694 C17.7522568,50.5564518 17.2495962,50.8127264 16.8219444,51.1778331 C16.785848,51.1708351 16.7497517,51.164199 16.7137834,51.1593727 C16.7137834,51.1593727 9.50834216,56.2211568 15.1704734,64.905051 C15.2735143,65.3564272 25.9034986,78.03707 28.5224023,78.8726167 C30.2364658,79.4194322 27.0827732,67.7088682 23.1056492,59.3356647 Z" id="Path" fill="#8F1E1C" fill-rule="nonzero"></path>
                <path d="M12.9893088,59.8749742 L12.9900088,59.8764742 C13.0085088,59.8909742 13.0257088,59.9040742 12.9893088,59.8749742 Z" id="Path" fill="#E33A25" fill-rule="nonzero"></path>
                <path d="M127.993183,50.8879775 C127.87917,50.5100693 127.765675,50.1324078 127.648294,49.757953 L131.623586,44.2754475 C132.02911,43.7177122 132.112028,42.992977 131.847725,42.356922 C131.583423,41.7241972 131.00688,41.2703127 130.324099,41.1593083 L123.601743,40.0733156 C123.341587,39.5673824 123.068474,39.0690961 122.794584,38.5747567 L125.618605,32.4198113 C125.909209,31.79239 125.847797,31.063708 125.462745,30.494749 C125.079117,29.9229532 124.427559,29.5889534 123.733247,29.6149777 L116.91113,29.8509237 C116.55782,29.4130731 116.199068,28.9791694 115.832931,28.5532826 L117.400738,21.9559233 C117.559449,21.2858269 117.359019,20.5846493 116.869153,20.0979569 C116.381748,19.6129911 115.673442,19.4123199 115.000119,19.5696994 L108.355111,21.1247472 C107.924842,20.7627497 107.487188,20.4053156 107.04474,20.0550352 L107.284167,13.2820422 C107.30982,12.5964053 106.97413,11.944933 106.397458,11.564558 C105.821433,11.1817163 105.089807,11.1238707 104.459757,11.4084119 L98.2606945,14.2139855 C97.7613699,13.9414081 97.259454,13.6712975 96.7520967,13.4101906 L95.656666,6.73574483 C95.545633,6.05960492 95.088545,5.48534234 94.4483885,5.22300202 C93.8105642,4.95930499 93.0791974,5.04440833 92.5191091,5.44599746 L86.9922047,9.39368267 C86.4480523,9.22150257 85.9014382,9.05659942 85.3478279,8.89897322 L82.9657359,2.5696277 C82.7234585,1.92469234 82.1649249,1.45082704 81.4838275,1.31762181 C80.8050621,1.18552661 80.1066036,1.40926208 79.6359118,1.90989176 L74.9837972,6.86463323 C74.4212473,6.80296414 73.8585677,6.74672193 73.2939448,6.70034678 L69.7021502,0.938850247 C69.3380863,0.355213966 68.6954682,0 68.0028399,0 C67.3117663,0 66.6678526,0.355213966 66.3068982,0.938850247 L62.7138079,6.70034678 C62.149185,6.74672193 61.5837847,6.80296414 61.0222712,6.86463323 L56.369768,1.90989176 C55.8986875,1.40926208 55.1976377,1.18552661 54.5212045,1.31762181 C53.8403661,1.4523071 53.2809256,1.92469234 53.0399438,2.5696277 L50.6557789,8.89897322 C50.1038528,9.05659942 49.5569796,9.22298263 49.0115316,9.39368267 L43.4865707,5.44599746 C42.9247981,5.04317495 42.1935609,4.95819494 41.5540522,5.22300202 C40.9167461,5.48534234 40.4578442,6.05960492 40.347459,6.73574483 L39.251251,13.4101906 C38.7441527,13.6712975 38.2421074,13.9398047 37.7414871,14.2139855 L31.5430728,11.4084119 C30.9136698,11.122884 30.1789345,11.1817163 29.605631,11.564558 C29.0297364,11.944933 28.6932688,12.5964053 28.7194399,13.2820422 L28.9571827,20.0550352 C28.5160306,20.4053156 28.0795426,20.7627497 27.647071,21.1247472 L21.0033586,19.5696994 C20.3282209,19.4136766 19.6209523,19.6129911 19.1323812,20.0979569 C18.6407006,20.5846493 18.4415667,21.2858269 18.5995005,21.9559233 L20.1644569,28.5532826 C19.8014295,28.9808961 19.4421594,29.4130731 19.090015,29.8509237 L12.2680279,29.6149777 C11.579416,29.5956136 10.9222871,29.9229532 10.5376232,30.494749 C10.1521819,31.063708 10.0938799,31.79239 10.3807259,32.4198113 L13.20695,38.5747567 C12.9324121,39.0690961 12.6596881,39.5673824 12.3973289,40.0733156 L5.67536218,41.1593083 C4.99245088,41.2688326 4.41681536,41.7224704 4.15121715,42.356922 C3.88730322,42.992977 3.97294245,43.7177122 4.37600392,44.2754475 L8.35220342,49.757953 C8.32149767,49.8546502 8.29325357,49.952334 8.26280695,50.0495245 L6.07803497,52.258758 L11.9524195,60.1584453 C11.9524195,60.1584453 68.3307565,84.9163654 120.627043,60.5773018 C126.600801,59.556925 127.993183,50.8879775 127.993183,50.8879775 Z" id="Path" fill="#E43A25" fill-rule="nonzero"></path>
                <path d="M78.3721338,46.5298137 C78.3721338,46.5298137 84.5987479,40.2139705 90.8254914,46.5298137 C90.8254914,46.5298137 95.7181358,54.9517365 90.8254914,59.162099 C90.8254914,59.162099 82.8197338,65.0572773 78.3721338,59.162099 C78.3721338,59.162099 73.0348328,54.5299935 78.3721338,46.5298137 Z" id="Path" fill="#030404" fill-rule="nonzero"></path>
                <path d="M86,48.0000575 C86,50.362228 84.4327469,52.2772277 82.4998058,52.2772277 C80.5672531,52.2772277 79,50.362228 79,48.0000575 C79,45.6380021 80.5672531,43.7227723 82.4998058,43.7227723 C84.4327469,43.7227723 86,45.6380021 86,48.0000575 Z" id="Path" fill="#FFFFFF" fill-rule="nonzero"></path>
                <path d="M50.6698626,44.732748 C50.6698626,44.732748 61.6416311,40.2106047 64.6361291,50.3040739 C64.6361291,50.3040739 67.7730072,62.0686195 55.6262044,62.7326733 C55.6262044,62.7326733 40.1367896,59.9555412 50.6698626,44.732748 Z" id="Path" fill="#030404" fill-rule="nonzero"></path>
                <path d="M56,48.4752475 C56,51.0993585 54.4330326,53.2277228 52.4998117,53.2277228 C50.5673441,53.2277228 49,51.0993585 49,48.4752475 C49,45.8505169 50.5673441,43.7227723 52.4998117,43.7227723 C54.4330326,43.7227723 56,45.8505169 56,48.4752475 Z" id="Path" fill="#FFFFFF" fill-rule="nonzero"></path>
                <path d="M14.6754777,60.8305619 C16.1176157,59.3096697 19.6212471,57.4677097 19.3528598,55.1826494 C18.8724978,51.0912627 15.2164603,48.104881 11.1869686,48.5124699 C10.1875842,48.6135129 9.25947162,48.9142012 8.43550546,49.3710912 C8.37475341,49.3580337 8.31386986,49.3453424 8.25298631,49.3352137 C8.25298631,49.3352137 -5.37427777,55.5433778 2.39291165,67.9643432 C2.46615601,68.5912247 17.8896821,86.960913 22.2212246,88.3597726 C25.0561889,89.2752611 19.6029689,72.6614998 14.6754777,60.8305619 Z" id="Path" fill="#E43A25" fill-rule="nonzero"></path>
                <path d="M123.131217,60.2892048 C121.474517,58.9572418 117.106118,57.7475206 117.007183,55.4047595 C116.830197,51.2099474 119.945466,47.6842289 123.965506,47.529995 C124.962423,47.4916544 125.921229,47.6648096 126.802375,48.0101241 C126.860065,47.9884642 126.917755,47.9670532 126.975837,47.9482563 C126.975837,47.9482563 141.336383,52.299045 135.680919,65.9193004 C135.708328,66.5620037 123.481404,87.2575967 119.451315,89.2765788 C116.813621,90.5979608 120.169962,72.9157162 123.131217,60.2892048 Z" id="Path" fill="#E43A25" fill-rule="nonzero"></path>
                <path d="M24,60.8316832 C24,60.8316832 23.8199286,77.9277798 41.3457887,81.7425743 L45,74.724254 C45,74.724254 32.3006583,75.8986021 31.3237357,60.8316832 L24,60.8316832 Z" id="Path" fill="#E43A25" fill-rule="nonzero"></path>
                <path d="M113,60.8316832 C113,60.8316832 113.17994,77.9277798 95.6541887,81.7425743 L92,74.724254 C92,74.724254 104.699263,75.8986021 105.67618,60.8316832 L113,60.8316832 Z" id="Path" fill="#E43A25" fill-rule="nonzero"></path>
                <path d="M100.243051,78.0288534 C97.6960327,71.951328 89.4770262,69.5384231 81.8855293,72.6395232 C75.2034122,75.3690823 71.2400009,81.4601432 72.1220866,87.0249371 C77.3979983,86.943973 83.0572833,86.6063327 88.5658856,85.8181742 C88.5658856,85.8181742 85.3161423,91.0042249 80.5340376,95.5302689 C83.7496949,96.3497202 87.5000372,96.1223501 91.1090043,94.6481075 C98.7006269,91.5470074 102.790068,84.1062546 100.243051,78.0288534 Z" id="Path" fill="#E43A25" fill-rule="nonzero"></path>
                <path d="M51.8984696,85.4730691 C51.8984696,85.4730691 59.080364,86.3658613 68.898599,86.5936182 C69.7585581,80.779026 65.0762695,74.6254298 57.6058139,72.2449362 C49.3525483,69.6151462 40.8243821,72.5866327 38.5573946,78.8820721 C36.2904071,85.1775115 41.1432565,92.4128609 49.396522,95.0427734 C53.055056,96.2086045 56.767061,96.2726114 59.9643916,95.4352592 C55.1622811,90.9676268 51.8984696,85.4730691 51.8984696,85.4730691 Z" id="Path" fill="#E43A25" fill-rule="nonzero"></path>
            </g>
            <text id="Rvoip" font-family="Helvetica-Bold, Helvetica" font-size="100" font-weight="bold" line-spacing="94" fill="#FFFFFF">
                <tspan x="61" y="108">Rvoip</tspan>
            </text>
            <g id="Group" stroke-width="1" fill-rule="evenodd" transform="translate(251, 169)">
                <path d="M23.2142237,5.29997574 C27.2929614,4.18216407 31.5580375,6.2728859 33.1729692,10.1645265 L41.5581914,30.3058368 C42.9867849,33.7213725 41.9929807,37.6751138 39.1150896,40.0349384 L29.9845143,47.5077164 C36.7133963,62.3290712 48.411299,74.4179974 62.9663885,81.6423728 L70.95823,71.8718708 C73.2978106,68.9945407 77.2523228,68.0216306 80.6892287,69.4292453 L100.834466,77.833533 C104.726866,79.4481499 106.817995,83.7123944 105.699966,87.790337 L105.389402,88.9288489 C101.745454,102.321889 88.8052957,113.748408 73.007951,110.415673 C36.7755091,102.735893 8.26575336,74.2316954 0.584475675,38.0063172 C-2.74890898,22.2120523 8.67983841,9.27441723 22.0547855,5.61047898 L23.1935194,5.29997574 L23.2142237,5.29997574 Z" id="Path" fill="#1216E4"></path>
                <path d="M67.96875,0 C94.4894531,0 116,21.5105469 116,48.03125 C116,50.7847656 113.784766,53 111.03125,53 C108.277734,53 106.0625,50.7847656 106.0625,48.03125 C106.0625,26.996875 89.003125,9.9375 67.96875,9.9375 C65.2152344,9.9375 63,7.72226562 63,4.96875 C63,2.21523437 65.2152344,0 67.96875,0 Z M69.625,39.75 C73.2894531,39.75 76.25,42.7105469 76.25,46.375 C76.25,50.0394531 73.2894531,53 69.625,53 C65.9605469,53 63,50.0394531 63,46.375 C63,42.7105469 65.9605469,39.75 69.625,39.75 Z M63,24.84375 C63,22.0902344 65.2152344,19.875 67.96875,19.875 C83.5167969,19.875 96.125,32.4832031 96.125,48.03125 C96.125,50.7847656 93.9097656,53 91.15625,53 C88.4027344,53 86.1875,50.7847656 86.1875,48.03125 C86.1875,37.9695312 78.0304687,29.8125 67.96875,29.8125 C65.2152344,29.8125 63,27.5972656 63,24.84375 Z" id="Shape" fill="#D8D6E3" fill-rule="nonzero"></path>
            </g>
            <text id="+" font-family="Helvetica-Bold, Helvetica" font-size="72" font-weight="bold" fill="#FFFFFF">
                <tspan x="186.976562" y="243">+</tspan>
            </text>
            <text id="The-modern-VoIP-stac" font-family="CourierNewPSMT, Courier New" font-size="28" font-weight="normal" fill="#FFFFFF">
                <tspan x="24" y="347">The modern VoIP stack</tspan>
            </text>
        </g>
    </g>
</svg>